<?xml version="1.0" encoding="UTF-8" standalone="no"?><!DOCTYPE svg PUBLIC "-//W3C//DTD SVG 1.1//EN" "http://www.w3.org/Graphics/SVG/1.1/DTD/svg11.dtd"><svg width="100%" height="100%" viewBox="0 0 1067 534" version="1.1" xmlns="http://www.w3.org/2000/svg" xmlns:xlink="http://www.w3.org/1999/xlink" xml:space="preserve" xmlns:serif="http://www.serif.com/" style="fill-rule:evenodd;clip-rule:evenodd;stroke-linejoin:round;stroke-miterlimit:2;"><g id="logo"><path d="M526.698,154.411c-0.042,5.785 -9.752,21.338 -11.869,21.313c-0.914,-0.011 -1.824,-1.061 -2.562,-2.249c2.998,-7.646 8.644,-15.92 14.431,-19.064Zm-13.655,34.204c-3.67,-1.087 -3.671,-6.6 -1.568,-12.971c1.239,2.082 3.869,5.281 8.204,4.887c4.68,-0.424 17.187,-20.845 12.635,-29.183c-0.623,-1.141 -4.579,-4.025 -8.168,-3.829c-9.317,0.51 -24.121,26.291 -20.547,34.715c3.573,8.422 11.203,10.964 15.06,10.465c11.826,-1.532 24.376,-25.398 24.376,-25.398l0,-6.381c0,0 -21.655,30.162 -29.992,27.695Z" style="fill:#808080;fill-rule:nonzero;"/><path d="M570.811,147.18c-0.053,0.011 -0.083,0.075 -0.175,0.321c-0.366,0.76 -3.475,7.782 -4.232,9.312c-7.756,12.136 -22.547,32.194 -23.445,31.945c-2.398,-0.667 8.218,-28.518 15.858,-40.111c1.61,-2.443 -6.373,-6.153 -7.217,-5.198c-4.05,4.583 -19.967,38.379 -17.969,43.843c1.999,5.463 8.529,6.662 11.461,6.662c2.393,0 9.59,-10.29 12.153,-14.072c-5.528,13.723 -17.467,41.887 -22.504,42.39c-1.856,0.186 -0.976,-0.977 -1.509,-2.221c-0.533,-1.243 -3.198,-2.577 -4.264,-3.731c-1.067,-1.155 -1.6,3.465 -0.356,5.419c1.243,1.955 6.662,6.663 11.193,6.663c11.15,0 36.32,-71.273 38.546,-75.825c1.432,-2.931 -6.474,-6.218 -7.54,-5.397Z" style="fill:#808080;fill-rule:nonzero;"/><path d="M627.611,127.272c-3.559,-1.525 -16.225,-9.003 -45.553,61.638c-1.643,-9.462 6.692,-30.075 11.562,-40.89c0.787,-1.749 -6.329,-5.984 -7.87,-4.084c-3.603,4.44 -15.997,38.373 -12.763,43.308c3.084,4.709 8.335,7.357 12.21,6.592c0.784,0.222 1.428,0.191 1.583,-0.212c10.593,-27.44 27.77,-61.971 39.511,-61.971c4.553,0 4.213,0.979 5.063,0.979c0.851,0 -0.169,-3.829 -3.743,-5.36Z" style="fill:#808080;fill-rule:nonzero;"/><path d="M610.778,190.433c-3.093,-0.378 1.139,-19.025 8.286,-32.374c-0.326,1.892 -0.239,3.513 0.481,4.573c2.195,3.226 4.774,5.392 7.898,6.485c-6.218,10.993 -13.864,21.658 -16.665,21.316Zm24.409,-44.664c3.106,0.185 -0.099,8.913 -5.163,18.606c-1.65,0.921 -2.81,1.363 -3.161,1.053c-1.871,-1.645 5.948,-19.8 8.324,-19.659Zm2.118,13.859c3.205,-7.334 4.753,-13.49 2.674,-15.503c-3.377,-3.269 -9.406,-4.112 -11.577,-3.537c-1.049,0.278 -3.923,4.306 -6.241,8.939c-1.885,-1.518 -5.661,-2.752 -6.311,-1.948c-8.243,10.199 -16.397,34.793 -14.422,38.577c1.974,3.783 6.794,7.978 12.387,7.978c2.912,0 11.593,-11.916 18.356,-24.194c0.144,0.003 0.285,0.012 0.432,0.012c5.592,0 21.166,-18.589 21.166,-18.589l-0.336,-3.866c0,0 -8.672,6.872 -16.128,12.131Z" style="fill:#808080;fill-rule:nonzero;"/><path d="M676.361,130.962c-2.211,-0.236 -5.839,-0.185 -10.206,0.053c0.944,-3.567 -7.426,-5.702 -7.685,-5.253c-0.898,1.553 -1.944,3.612 -3.092,6.057c-15.483,1.396 -33.163,3.818 -34.24,4.466c-1.699,1.021 2.726,1.277 4.513,3.404c0.678,0.807 7.189,-1.207 27.024,-1.838c-9.404,21.816 -22.488,59.965 -20.584,67.038c1.787,6.637 12.337,10.347 14.506,9.577c6.417,-2.28 14.524,-21.954 14.524,-21.954l0,-6.067c0,0 -15.662,24.231 -18.692,22.4c-5.787,-3.493 12.973,-53.353 20.637,-71.172c4.021,-0.015 8.44,0.026 13.295,0.144c2.435,0.059 1.255,-6.721 0,-6.855Z" style="fill:#808080;fill-rule:nonzero;"/><path d="M119.779,390.653c-2,1.2 -4.8,1.65 -8.4,1.35c-3.6,-0.3 -7.35,-1.1 -11.25,-2.4c-3.9,-1.3 -7.7,-3.1 -11.4,-5.4c-3.7,-2.3 -6.65,-4.75 -8.85,-7.35c-3.8,-4.8 -6.55,-9.9 -8.25,-15.3c-1.7,-5.4 -2.45,-11.8 -2.25,-19.2c-0,-4 0.1,-7.3 0.3,-9.9c0.2,-2.6 0.8,-5.7 1.8,-9.3c1.6,-6 4,-12.35 7.2,-19.05c3.2,-6.7 7,-13.25 11.4,-19.65c4.4,-6.4 9.2,-12.6 14.4,-18.6c5.2,-6 10.6,-11.4 16.2,-16.2c10.4,-8.8 21.85,-17.05 34.35,-24.75c12.5,-7.7 25.5,-14.6 39,-20.7c13.5,-6.1 27.35,-11.3 41.55,-15.6c14.2,-4.3 28.3,-7.55 42.3,-9.75c4,-0.4 8.85,-0.8 14.55,-1.2c5.7,-0.4 11.25,-0.6 16.65,-0.6l8.7,-0c2.8,-0 5.2,0.2 7.2,0.6c11.8,1.6 21.25,4.05 28.35,7.35c7.1,3.3 12.85,8.15 17.25,14.55c3.2,4.6 5.35,8.65 6.45,12.15c1.1,3.5 1.65,7.85 1.65,13.05c-0,16 -6.6,28.9 -19.8,38.7c-1.2,0.8 -3.5,2.15 -6.9,4.05c-3.4,1.9 -6.8,3.95 -10.2,6.15l-13.2,6.9l7.8,0.9c9,1.2 17.15,3.6 24.45,7.2c7.3,3.6 14.15,8.6 20.55,15c3.4,3.4 5.85,6.1 7.35,8.1c1.5,2 3.15,4.7 4.95,8.1c1.6,3.4 2.95,6.45 4.05,9.15c1.1,2.7 1.95,5.4 2.55,8.1c0.6,2.7 1,5.55 1.2,8.55c0.2,3 0.3,6.5 0.3,10.5c-0,8.2 -0.7,15.1 -2.1,20.7c-1.4,5.6 -3.8,11.9 -7.2,18.9c-5.2,11.2 -12.9,22.2 -23.1,33c-10.2,10.8 -22.2,20.7 -36,29.7c-5.8,3.8 -11.85,7.3 -18.15,10.5c-6.3,3.2 -12.6,6 -18.9,8.4c-6.3,2.4 -12.5,4.35 -18.6,5.85c-6.1,1.5 -11.75,2.45 -16.95,2.85c-2.2,-0 -4.25,0.1 -6.15,0.3c-1.9,0.2 -3.05,0.4 -3.45,0.6c-0.8,-0 -2.1,-0.05 -3.9,-0.15c-1.8,-0.1 -3.7,-0.25 -5.7,-0.45c-10.8,-1 -20.3,-3.75 -28.5,-8.25c-8.2,-4.5 -14,-10.15 -17.4,-16.95c-4,-8.8 -4.35,-18.4 -1.05,-28.8c3.3,-10.4 10.15,-20.9 20.55,-31.5c6.4,-6.4 13.25,-12.15 20.55,-17.25c7.3,-5.1 15.65,-9.95 25.05,-14.55c4.8,-2.6 7.8,-4.25 9,-4.95c1.2,-0.7 1.6,-1.55 1.2,-2.55c-2.2,-8.2 -3.75,-17.7 -4.65,-28.5c-0.9,-10.8 -1.2,-22.15 -0.9,-34.05c0.3,-11.9 1.3,-24.1 3,-36.6c1.7,-12.5 3.95,-24.55 6.75,-36.15c2.6,-11 5.15,-17.85 7.65,-20.55c2.5,-2.7 6.35,-2.75 11.55,-0.15c1.2,0.6 2.25,1.15 3.15,1.65c0.9,0.5 1.6,1.5 2.1,3c0.5,1.5 0.75,3.65 0.75,6.45c-0,2.8 -0.2,6.9 -0.6,12.3c-0.4,5.4 -1,12.3 -1.8,20.7c-0.8,8.4 -1.8,18.8 -3,31.2l-0.6,5.7l8.7,-4.8c5.6,-3 10.6,-5.9 15,-8.7c4.4,-2.8 8.5,-5.75 12.3,-8.85c3.8,-3.1 7.3,-6.4 10.5,-9.9c3.2,-3.5 6.4,-7.45 9.6,-11.85c5.6,-7.4 9.4,-13.45 11.4,-18.15c2,-4.7 3,-9.55 3,-14.55c0.4,-16 -13.1,-25.2 -40.5,-27.6c-9,-0.8 -18.85,-0.55 -29.55,0.75c-10.7,1.3 -21.8,3.65 -33.3,7.05c-11.5,3.4 -23.2,7.75 -35.1,13.05c-11.9,5.3 -23.45,11.35 -34.65,18.15c-21.6,13 -40.05,27.5 -55.35,43.5c-15.3,16 -26.85,33 -34.65,51c-6.2,13.8 -9.5,26.3 -9.9,37.5c-0.4,11.2 2.1,19.9 7.5,26.1c2.2,2.6 4.95,4.7 8.25,6.3c3.3,1.6 6.35,2.4 9.15,2.4c5.2,-0 6.2,0.9 3,2.7Zm212.1,-100.8c-1.6,-0.4 -3.05,-0.6 -4.35,-0.6c-1.3,-0 -2.65,-0.1 -4.05,-0.3c-3.8,-0 -7.35,0.25 -10.65,0.75c-3.3,0.5 -6.85,1.45 -10.65,2.85l-8.4,3l-0.3,5.4c-0.4,3 -0.7,6.45 -0.9,10.35c-0.2,3.9 -0.35,7.8 -0.45,11.7c-0.1,3.9 -0.1,7.7 -0,11.4c0.1,3.7 0.25,6.75 0.45,9.15l0.3,10.2l4.8,-1.8c12.4,-5.2 21.9,-8.75 28.5,-10.65c6.6,-1.9 11,-2.45 13.2,-1.65c1.6,0.4 2.35,0.95 2.25,1.65c-0.1,0.7 -0.95,1.05 -2.55,1.05c-1,-0 -2.65,0.3 -4.95,0.9c-2.3,0.6 -4.95,1.4 -7.95,2.4c-3,1 -6.3,2.2 -9.9,3.6c-3.6,1.4 -7.1,2.9 -10.5,4.5l-11.4,4.8l-0,4.5c-0,1.8 0.25,4.5 0.75,8.1c0.5,3.6 1.15,7.25 1.95,10.95c0.8,3.7 1.55,7.25 2.25,10.65c0.7,3.4 1.35,5.8 1.95,7.2c1,2.8 1.55,4.55 1.65,5.25c0.1,0.7 -0.15,1.25 -0.75,1.65c-1.4,1 -3,1.3 -4.8,0.9c-1.8,-0.4 -3.3,-1.4 -4.5,-3c-1,-1.2 -2.1,-2.6 -3.3,-4.2c-1.2,-1.6 -2.4,-3.25 -3.6,-4.95c-1.2,-1.7 -2.3,-3.35 -3.3,-4.95c-1,-1.6 -1.7,-2.9 -2.1,-3.9c-1,-1.6 -2.1,-3.95 -3.3,-7.05c-1.2,-3.1 -2.4,-6.35 -3.6,-9.75c-0.2,-0.4 -0.95,-0.35 -2.25,0.15c-1.3,0.5 -3.55,1.55 -6.75,3.15c-8.4,4.4 -15.75,9 -22.05,13.8c-6.3,4.8 -12.25,10.1 -17.85,15.9c-9.6,10 -15.9,19.6 -18.9,28.8c-3,9.2 -2.5,17.8 1.5,25.8c2.2,4 5.3,7.6 9.3,10.8c4,3.2 8.3,5.4 12.9,6.6c3,0.6 7.1,0.8 12.3,0.6c5.2,-0.2 10.1,-0.7 14.7,-1.5c13.4,-2.8 27.05,-8.4 40.95,-16.8c13.9,-8.4 27.05,-18.9 39.45,-31.5c8.4,-8.6 15.2,-17.1 20.4,-25.5c5.2,-8.4 9.8,-18.2 13.8,-29.4c4,-11.4 6.05,-22.2 6.15,-32.4c0.1,-10.2 -1.75,-19.2 -5.55,-27c-3.2,-6.4 -7.95,-11.3 -14.25,-14.7c-6.3,-3.4 -14.85,-5.7 -25.65,-6.9Z" style="fill:#448c9b;fill-rule:nonzero;"/><path d="M460.879,380.453c-3.8,7.8 -8.8,11.7 -15,11.7c-4.6,-0 -8.65,-1.9 -12.15,-5.7c-3.5,-3.8 -6.45,-9.25 -8.85,-16.35c-2.4,-7.1 -4.2,-15.65 -5.4,-25.65c-1.2,-10 -1.8,-21.3 -1.8,-33.9c-0,-6.4 0.3,-12.7 0.9,-18.9c0.6,-6.2 1.6,-13.7 3,-22.5c4.4,-27.6 9.8,-48.05 16.2,-61.35c6.4,-13.3 12.7,-19.95 18.9,-19.95c2.4,-0 4.55,1.1 6.45,3.3c1.9,2.2 2.85,6.4 2.85,12.6c-0,4.2 -0.4,8.95 -1.2,14.25c-0.8,5.3 -1.95,10.85 -3.45,16.65c-1.5,5.8 -3.35,11.65 -5.55,17.55c-2.2,5.9 -4.6,11.55 -7.2,16.95c-1.2,2.4 -2.15,4.6 -2.85,6.6c-0.7,2 -1.3,4.35 -1.8,7.05c-0.5,2.7 -0.8,6.1 -0.9,10.2c-0.1,4.1 -0.15,9.45 -0.15,16.05c-0,25.8 0.5,44.75 1.5,56.85c1,12.1 2.1,18.15 3.3,18.15c0.6,-0 1.5,-0.95 2.7,-2.85c1.2,-1.9 2.55,-4.45 4.05,-7.65c1.5,-3.2 3.05,-6.85 4.65,-10.95c1.6,-4.1 3.1,-8.45 4.5,-13.05c0.6,-2.2 1.5,-5.45 2.7,-9.75c1.2,-4.3 2.45,-9 3.75,-14.1c1.3,-5.1 2.6,-10.35 3.9,-15.75c1.3,-5.4 2.5,-10.3 3.6,-14.7c1.1,-4.4 2.05,-8 2.85,-10.8c0.8,-2.8 1.2,-4.2 1.2,-4.2c1,-0 1.5,1 1.5,3c-0,1.8 -0.15,3.75 -0.45,5.85c-0.3,2.1 -0.85,5.05 -1.65,8.85c-0.8,3.8 -1.85,8.7 -3.15,14.7c-1.3,6 -2.95,13.9 -4.95,23.7c-1.4,7 -2.6,12.85 -3.6,17.55c-1,4.7 -1.95,8.7 -2.85,12c-0.9,3.3 -1.8,6.05 -2.7,8.25c-0.9,2.2 -1.85,4.3 -2.85,6.3Zm-15.6,-115.2l2.1,-4.8c2.2,-3.8 4.15,-8.25 5.85,-13.35c1.7,-5.1 3.15,-10.25 4.35,-15.45c1.2,-5.2 2.1,-10.15 2.7,-14.85c0.6,-4.7 0.9,-8.55 0.9,-11.55c-0,-3.4 -0.2,-5.95 -0.6,-7.65c-0.4,-1.7 -0.7,-2.55 -0.9,-2.55c-1,-0 -2.05,1.4 -3.15,4.2c-1.1,2.8 -2.2,6.5 -3.3,11.1c-1.1,4.6 -2.2,9.9 -3.3,15.9c-1.1,6 -1.95,12.2 -2.55,18.6c-0.4,3.6 -0.75,7.05 -1.05,10.35c-0.3,3.3 -0.55,5.45 -0.75,6.45l-0.3,3.6Z" style="fill:#448c9b;fill-rule:nonzero;"/><path d="M547.879,300.353c-1,5.8 -2,10.3 -3,13.5c-1,3.2 -1.5,5.1 -1.5,5.7c-0,0.4 0.2,0.6 0.6,0.6c0.6,-0 1.75,-0.8 3.45,-2.4c1.7,-1.6 3.65,-3.7 5.85,-6.3c2.2,-2.6 4.55,-5.45 7.05,-8.55c2.5,-3.1 4.85,-6.15 7.05,-9.15c2.2,-3 4.15,-5.8 5.85,-8.4c1.7,-2.6 2.85,-4.6 3.45,-6c0.4,-0 1,0.15 1.8,0.45c0.8,0.3 1.2,0.65 1.2,1.05c-0,0.6 -0.5,1.9 -1.5,3.9c-1.8,4 -4.1,8.1 -6.9,12.3c-2.8,4.2 -5.85,8.25 -9.15,12.15c-3.3,3.9 -6.6,7.4 -9.9,10.5c-3.3,3.1 -6.25,5.45 -8.85,7.05c-1,0.6 -2,1.7 -3,3.3c-1,1.6 -2.4,4.7 -4.2,9.3c-5.2,13.2 -10.4,22.8 -15.6,28.8c-5.2,6 -11.3,9.2 -18.3,9.6c-10.2,-0 -18.7,-4.05 -25.5,-12.15c-6.8,-8.1 -10.2,-19.25 -10.2,-33.45c-0,-6.6 0.55,-13 1.65,-19.2c1.1,-6.2 2.8,-11.7 5.1,-16.5c2.3,-4.8 5.15,-8.8 8.55,-12c3.4,-3.2 7.4,-5.1 12,-5.7c1,-0 2,-2 3,-6c3.2,-9.4 7.85,-16.45 13.95,-21.15c6.1,-4.7 12.45,-7.05 19.05,-7.05c3.2,-0 6.05,1 8.55,3c2.5,2 4.6,4.7 6.3,8.1c1.7,3.4 3,7.25 3.9,11.55c0.9,4.3 1.35,8.85 1.35,13.65c-0,6.6 -0.7,13.1 -2.1,19.5Zm-21.3,39.9c1.2,-3 2.15,-5.2 2.85,-6.6c0.7,-1.4 1.05,-2.4 1.05,-3c-0,-0.6 -0.2,-0.9 -0.6,-0.9c-5.2,-0 -9.65,-1.05 -13.35,-3.15c-3.7,-2.1 -6.85,-4.4 -9.45,-6.9c-2.6,-2.5 -4.6,-4.8 -6,-6.9c-1.4,-2.1 -2.4,-3.15 -3,-3.15c-0.4,-0 -0.6,0.6 -0.6,1.8c-0,0.8 -0.15,1.75 -0.45,2.85c-0.3,1.1 -0.7,2.7 -1.2,4.8c-0.5,2.1 -0.9,4.85 -1.2,8.25c-0.3,3.4 -0.45,7.8 -0.45,13.2c-0,2.8 0.1,5.8 0.3,9c0.2,3.2 0.6,6.15 1.2,8.85c0.6,2.7 1.5,5 2.7,6.9c1.2,1.9 2.8,2.85 4.8,2.85c1.6,-0 3.35,-0.75 5.25,-2.25c1.9,-1.5 3.9,-3.5 6,-6c2.1,-2.5 4.2,-5.45 6.3,-8.85c2.1,-3.4 4.05,-7 5.85,-10.8Zm8.1,-20.1c4.8,-15.8 7.2,-29.5 7.2,-41.1c-0,-8.4 -1.2,-15.5 -3.6,-21.3c-2.4,-5.8 -5.3,-8.7 -8.7,-8.7c-3,-0 -5.85,1.3 -8.55,3.9c-2.7,2.6 -5.1,5.85 -7.2,9.75c-2.1,3.9 -3.75,8.25 -4.95,13.05c-1.2,4.8 -1.8,9.3 -1.8,13.5c-0,5.2 0.65,9.95 1.95,14.25c1.3,4.3 3.05,8 5.25,11.1c2.2,3.1 4.65,5.5 7.35,7.2c2.7,1.7 5.45,2.55 8.25,2.55c1.6,-0 2.7,-0.2 3.3,-0.6c0.6,-0.4 1.1,-1.6 1.5,-3.6Z" style="fill:#448c9b;fill-rule:nonzero;"/><path d="M613.579,357.953c0.2,-5.8 0.4,-11.3 0.6,-16.5c0.2,-5.2 0.4,-8.8 0.6,-10.8l0.3,-6.6l-3.9,11.7c-4,12 -8.25,21.25 -12.75,27.75c-4.5,6.5 -8.15,9.75 -10.95,9.75c-4.8,-0 -8.9,-1.1 -12.3,-3.3c-3.4,-2.2 -6.1,-5.2 -8.1,-9c-2,-3.8 -3.45,-8.05 -4.35,-12.75c-0.9,-4.7 -1.35,-9.65 -1.35,-14.85c-0,-8.4 0.9,-16.8 2.7,-25.2c1.8,-8.4 4.45,-16.05 7.95,-22.95c3.5,-6.9 7.85,-12.5 13.05,-16.8c5.2,-4.3 11.1,-6.45 17.7,-6.45c2.2,-0 4.1,0.2 5.7,0.6c1.6,0.4 3.9,1.4 6.9,3l7.2,3.6l1.8,-5.4c1.8,-5.4 3.55,-8.95 5.25,-10.65c1.7,-1.7 4.55,-2.55 8.55,-2.55c2.4,-0 4.5,0.85 6.3,2.55c1.8,1.7 2.7,3.95 2.7,6.75c-0,1.2 -0.1,2.65 -0.3,4.35c-0.2,1.7 -0.5,3.75 -0.9,6.15c-0.4,2 -0.8,5.55 -1.2,10.65c-0.4,5.1 -0.8,10.7 -1.2,16.8c-0.4,6.1 -0.7,12.1 -0.9,18c-0.2,5.9 -0.3,10.65 -0.3,14.25c-0,4 0.2,6 0.6,6c0.2,-0 1.15,-1.25 2.85,-3.75c1.7,-2.5 3.7,-5.5 6,-9c2.3,-3.5 4.55,-7 6.75,-10.5c2.2,-3.5 3.9,-6.25 5.1,-8.25c1.2,-2.2 2.45,-4.65 3.75,-7.35c1.3,-2.7 2.6,-5.2 3.9,-7.5c1.3,-2.3 2.45,-4.2 3.45,-5.7c1,-1.5 1.8,-2.25 2.4,-2.25c0.4,-0 0.6,0.5 0.6,1.5c-0,0.6 -1,2.9 -3,6.9c-2,4 -4.4,8.6 -7.2,13.8c-2.8,5.2 -5.75,10.5 -8.85,15.9c-3.1,5.4 -5.65,9.9 -7.65,13.5l-9,14.7l-0,6.6c-0,2.8 -0.1,6.3 -0.3,10.5c-0.2,4.2 -0.5,8.6 -0.9,13.2c-0.4,4.6 -0.8,9.2 -1.2,13.8c-0.4,4.6 -0.9,8.7 -1.5,12.3c-3.6,30.4 -10.4,53.25 -20.4,68.55c-10,15.3 -22.3,22.95 -36.9,22.95c-6.6,-0 -11.65,-1.8 -15.15,-5.4c-3.5,-3.6 -5.25,-8.3 -5.25,-14.1c-0,-4.2 1.15,-9.5 3.45,-15.9c2.3,-6.4 5.45,-13.55 9.45,-21.45c4,-7.9 8.85,-16.35 14.55,-25.35c5.7,-9 12.05,-18.3 19.05,-27.9l6.6,-7.8l-0,-20.1Zm-6.9,73.8c0.6,-3.2 1.15,-6.85 1.65,-10.95c0.5,-4.1 1,-8 1.5,-11.7c0.5,-3.7 0.9,-7 1.2,-9.9c0.3,-2.9 0.45,-4.85 0.45,-5.85l-0,-0.9c-0.2,-0 -1.15,1.25 -2.85,3.75c-1.7,2.5 -3.75,5.65 -6.15,9.45c-2.4,3.8 -4.95,7.75 -7.65,11.85c-2.7,4.1 -4.95,7.75 -6.75,10.95c-5.8,10 -10.4,19.4 -13.8,28.2c-3.4,8.8 -5.1,15.6 -5.1,20.4c-0,3.8 1.05,6.9 3.15,9.3c2.1,2.4 4.55,3.6 7.35,3.6c5.6,-0 10.7,-5 15.3,-15c4.6,-10 8.5,-24.4 11.7,-43.2Zm-10.8,-78c1.6,-2.8 3.5,-6.85 5.7,-12.15c2.2,-5.3 4.4,-11.1 6.6,-17.4c2.2,-6.3 4.2,-12.7 6,-19.2c1.8,-6.5 3.2,-12.35 4.2,-17.55l2.4,-10.5l-2.7,-2.4c-2.2,-1.8 -4.1,-2.7 -5.7,-2.7c-2.8,-0 -5.7,2.2 -8.7,6.6c-3,4.4 -5.8,10.2 -8.4,17.4c-2.6,7.2 -4.75,15.55 -6.45,25.05c-1.7,9.5 -2.55,19.45 -2.55,29.85c-0,3 0.1,5.85 0.3,8.55c0.2,2.7 0.6,4.05 1.2,4.05c1.4,-0 4.1,-3.2 8.1,-9.6Z" style="fill:#448c9b;fill-rule:nonzero;"/><g><path d="M837.549,375.074c86.834,0 160.747,8.265 159.761,27.288c-0.41,7.904 -4.773,13.887 -8.939,16.985c-19.211,14.287 -79.467,24.718 -150.822,24.718c-61.524,0 -114.796,-7.755 -140.622,-19.05c-10.625,-4.643 -19.481,-12.294 -19.138,-22.653c0.628,-19.038 72.926,-27.288 159.76,-27.288" style="fill:#448c9b;"/><path d="M837.549,367.312c88.233,-0 159.761,15.695 159.761,35.052c-0,19.357 -71.528,35.049 -159.761,35.049c-88.233,0 -159.76,-15.692 -159.76,-35.049c-0,-19.357 71.527,-35.052 159.76,-35.052" style="fill:#6db1bf;"/><path d="M837.549,384.699c42.819,0 77.535,7.616 77.535,17.012c-0,9.393 -34.716,17.009 -77.535,17.009c-42.822,-0 -77.535,-7.616 -77.535,-17.009c0,-9.396 34.713,-17.012 77.535,-17.012" style="fill:#448c9b;"/><path d="M751.983,263.659l170.822,0c0.17,0 0.31,0.14 0.31,0.31l-0,101.564c-0,19.269 -14.193,35.386 -32.64,38.42c-12.883,3.231 -31.815,5.273 -52.926,5.273c-21.108,0 -40.044,-2.042 -52.929,-5.273c-18.447,-3.034 -32.637,-19.151 -32.637,-38.42l-0,-101.874Z" style="fill:#448c9b;"/><g><path d="M929.182,361.719c-20.975,0 -34.445,-10.445 -40.373,-23.815c-2.236,-5.04 -3.355,-10.464 -3.355,-15.848c0,-5.384 1.119,-10.81 3.355,-15.851c5.93,-13.369 19.398,-23.813 40.373,-23.813l-0,16.364c-12.11,0 -19.818,5.876 -23.152,13.396c-1.365,3.082 -2.051,6.474 -2.051,9.904c0,3.43 0.686,6.822 2.051,9.904c3.334,7.52 11.042,13.393 23.152,13.393l-0,16.366Zm-0,-79.327c20.975,0 34.442,10.446 40.373,23.815c2.235,5.041 3.352,10.465 3.352,15.849c-0,5.384 -1.119,10.808 -3.352,15.848c-5.931,13.372 -19.398,23.815 -40.373,23.815l-0,-16.366c12.11,0 19.818,-5.873 23.152,-13.393c1.365,-3.082 2.048,-6.474 2.048,-9.904c-0,-3.43 -0.683,-6.822 -2.048,-9.904c-3.334,-7.52 -11.042,-13.396 -23.152,-13.396l-0,-16.364Z" style="fill:#6db1bf;fill-rule:nonzero;"/><path d="M910.777,357.272c-10.286,-4.284 -17.461,-11.293 -21.521,-19.368c-2.533,-5.041 -3.801,-10.465 -3.801,-15.849c-0,-5.383 1.268,-10.81 3.801,-15.848c4.063,-8.087 11.257,-15.103 21.563,-19.387l0,22.058c-0.795,1.043 -1.477,2.14 -2.048,3.273c-1.55,3.082 -2.324,6.474 -2.324,9.904c0,3.43 0.774,6.822 2.324,9.904c0.571,1.133 1.253,2.231 2.048,3.274l0,20.485c0,0.523 -0.015,1.043 -0.042,1.554" style="fill:#448c9b;fill-rule:nonzero;"/></g><path d="M923.114,263.619l-0,101.913c-0,21.408 -14.715,35.21 -35.759,39.154c-30.89,5.789 -64.683,6.414 -95.427,0.85c-2.524,-0.455 -9.682,-6.708 -11.287,-8.565c-5.892,-6.827 -9.469,-15.707 -9.469,-25.38l0,-101.871l151.942,-6.101Z" style="fill:#6db1bf;"/><path d="M837.549,244.846c47.255,-0 85.566,8.404 85.566,18.772c0,10.37 -38.311,18.774 -85.566,18.774c-47.258,0 -85.566,-8.404 -85.566,-18.774c0,-10.368 38.308,-18.772 85.566,-18.772" style="fill:#6db1bf;"/><path d="M837.549,251.065c39.91,-0 72.265,5.619 72.265,12.555c-0,6.932 -32.355,12.551 -72.265,12.551c-39.91,0 -72.265,-5.619 -72.265,-12.551c0,-6.936 32.355,-12.555 72.265,-12.555" style="fill:#448c9b;"/><path d="M901.317,269.529c-12.166,3.953 -36.157,6.645 -63.769,6.645c-27.61,-0 -51.6,-2.692 -63.767,-6.645c12.167,-3.953 36.157,-6.644 63.767,-6.644c27.612,-0 51.603,2.691 63.769,6.644" style="fill:#5c3d30;"/><g><path d="M777.102,184.709c-6.12,-10.021 0.658,-26.988 17.367,-27.513c11.787,-0.37 27.634,4.997 37.567,27.04c-2.888,-22.276 -13.647,-42.777 -35.031,-42.695c-24.023,0.094 -36.075,26.9 -19.903,43.168" style="fill:#808080;"/><path d="M842.577,224.563c79.246,-77.095 -40.793,-94.335 -0,-187.182c-78.254,84.986 43.999,103.215 -0,187.182" style="fill:#808080;"/></g></g></g></svg>